<svg width="335" height="50" viewBox="0 0 335 50" fill="none" xmlns="http://www.w3.org/2000/svg">
<rect x="1" y="1" width="333" height="48" rx="24" fill="#4A3D60" fill-opacity="0.58" stroke="white" stroke-width="2"/>
<path d="M34.6176 16.176C35.6096 16.176 36.4416 16.304 37.1136 16.56C37.8016 16.816 38.4976 17.232 39.2016 17.808L37.9536 19.272C36.9456 18.456 35.8816 18.048 34.7616 18.048C33.3856 18.048 32.2736 18.576 31.4256 19.632C30.5936 20.688 30.1776 22.384 30.1776 24.72C30.1776 26.992 30.5936 28.672 31.4256 29.76C32.2576 30.832 33.3616 31.368 34.7376 31.368C35.4416 31.368 36.0576 31.248 36.5856 31.008C37.1136 30.768 37.6736 30.432 38.2656 30L39.3936 31.44C38.8816 31.968 38.2256 32.408 37.4256 32.76C36.6256 33.112 35.7056 33.288 34.6656 33.288C33.3216 33.288 32.1216 32.96 31.0656 32.304C30.0256 31.632 29.2096 30.656 28.6176 29.376C28.0416 28.08 27.7536 26.528 27.7536 24.72C27.7536 22.912 28.0576 21.368 28.6656 20.088C29.2736 18.792 30.0976 17.816 31.1376 17.16C32.1776 16.504 33.3376 16.176 34.6176 16.176ZM50.4289 30.048C50.4289 30.56 50.5169 30.944 50.6929 31.2C50.8689 31.44 51.1329 31.624 51.4849 31.752L50.9809 33.288C50.3249 33.208 49.7969 33.024 49.3969 32.736C48.9969 32.448 48.7009 32 48.5089 31.392C47.6609 32.656 46.4049 33.288 44.7409 33.288C43.4929 33.288 42.5089 32.936 41.7889 32.232C41.0689 31.528 40.7089 30.608 40.7089 29.472C40.7089 28.128 41.1889 27.096 42.1489 26.376C43.1249 25.656 44.5009 25.296 46.2769 25.296H48.2209V24.36C48.2209 23.464 48.0049 22.824 47.5729 22.44C47.1409 22.056 46.4769 21.864 45.5809 21.864C44.6529 21.864 43.5169 22.088 42.1729 22.536L41.6209 20.928C43.1889 20.352 44.6449 20.064 45.9889 20.064C47.4769 20.064 48.5889 20.432 49.3249 21.168C50.0609 21.888 50.4289 22.92 50.4289 24.264V30.048ZM45.2449 31.632C46.5089 31.632 47.5009 30.976 48.2209 29.664V26.76H46.5649C44.2289 26.76 43.0609 27.624 43.0609 29.352C43.0609 30.104 43.2449 30.672 43.6129 31.056C43.9809 31.44 44.5249 31.632 45.2449 31.632ZM60.4596 20.064C60.9076 20.064 61.3236 20.112 61.7076 20.208L61.2996 22.368C60.9156 22.272 60.5476 22.224 60.1956 22.224C59.4116 22.224 58.7796 22.512 58.2996 23.088C57.8196 23.664 57.4436 24.56 57.1716 25.776V33H54.9636V20.352H56.8596L57.0756 22.92C57.4116 21.976 57.8676 21.264 58.4436 20.784C59.0196 20.304 59.6916 20.064 60.4596 20.064ZM74.0698 20.928C73.5898 21.088 73.0618 21.192 72.4858 21.24C71.9098 21.288 71.2058 21.312 70.3738 21.312C71.8618 21.984 72.6058 23.048 72.6058 24.504C72.6058 25.768 72.1738 26.8 71.3098 27.6C70.4458 28.4 69.2698 28.8 67.7818 28.8C67.2058 28.8 66.6698 28.72 66.1738 28.56C65.9818 28.688 65.8298 28.864 65.7178 29.088C65.6058 29.296 65.5498 29.512 65.5498 29.736C65.5498 30.424 66.1018 30.768 67.2058 30.768H69.2218C70.0698 30.768 70.8218 30.92 71.4778 31.224C72.1338 31.528 72.6378 31.944 72.9898 32.472C73.3578 33 73.5418 33.6 73.5418 34.272C73.5418 35.504 73.0378 36.448 72.0298 37.104C71.0218 37.776 69.5498 38.112 67.6138 38.112C66.2538 38.112 65.1738 37.968 64.3738 37.68C63.5898 37.408 63.0298 36.992 62.6938 36.432C62.3578 35.872 62.1898 35.152 62.1898 34.272H64.1818C64.1818 34.784 64.2778 35.184 64.4698 35.472C64.6618 35.776 65.0058 36 65.5018 36.144C65.9978 36.304 66.7018 36.384 67.6138 36.384C68.9418 36.384 69.8858 36.216 70.4458 35.88C71.0218 35.56 71.3098 35.072 71.3098 34.416C71.3098 33.824 71.0858 33.376 70.6378 33.072C70.1898 32.768 69.5658 32.616 68.7658 32.616H66.7738C65.7018 32.616 64.8858 32.392 64.3258 31.944C63.7818 31.48 63.5098 30.904 63.5098 30.216C63.5098 29.8 63.6298 29.4 63.8698 29.016C64.1098 28.632 64.4538 28.288 64.9018 27.984C64.1658 27.6 63.6218 27.128 63.2698 26.568C62.9338 25.992 62.7658 25.296 62.7658 24.48C62.7658 23.632 62.9738 22.872 63.3898 22.2C63.8218 21.528 64.4058 21.008 65.1418 20.64C65.8938 20.256 66.7258 20.064 67.6378 20.064C68.6298 20.08 69.4618 20.048 70.1338 19.968C70.8058 19.872 71.3578 19.752 71.7898 19.608C72.2378 19.448 72.7818 19.224 73.4218 18.936L74.0698 20.928ZM67.6378 21.648C66.8058 21.648 66.1578 21.912 65.6938 22.44C65.2458 22.952 65.0218 23.632 65.0218 24.48C65.0218 25.344 65.2538 26.04 65.7178 26.568C66.1818 27.08 66.8378 27.336 67.6858 27.336C68.5498 27.336 69.2058 27.088 69.6538 26.592C70.1178 26.08 70.3498 25.368 70.3498 24.456C70.3498 22.584 69.4458 21.648 67.6378 21.648ZM84.4133 30.048C84.4133 30.56 84.5013 30.944 84.6773 31.2C84.8533 31.44 85.1173 31.624 85.4693 31.752L84.9653 33.288C84.3093 33.208 83.7813 33.024 83.3813 32.736C82.9813 32.448 82.6853 32 82.4933 31.392C81.6453 32.656 80.3893 33.288 78.7253 33.288C77.4773 33.288 76.4933 32.936 75.7733 32.232C75.0533 31.528 74.6933 30.608 74.6933 29.472C74.6933 28.128 75.1733 27.096 76.1333 26.376C77.1093 25.656 78.4853 25.296 80.2613 25.296H82.2053V24.36C82.2053 23.464 81.9893 22.824 81.5573 22.44C81.1253 22.056 80.4613 21.864 79.5653 21.864C78.6373 21.864 77.5013 22.088 76.1573 22.536L75.6053 20.928C77.1733 20.352 78.6293 20.064 79.9733 20.064C81.4613 20.064 82.5733 20.432 83.3093 21.168C84.0453 21.888 84.4133 22.92 84.4133 24.264V30.048ZM79.2293 31.632C80.4933 31.632 81.4853 30.976 82.2053 29.664V26.76H80.5493C78.2133 26.76 77.0453 27.624 77.0453 29.352C77.0453 30.104 77.2293 30.672 77.5973 31.056C77.9653 31.44 78.5093 31.632 79.2293 31.632ZM94.444 20.064C94.892 20.064 95.308 20.112 95.692 20.208L95.284 22.368C94.9 22.272 94.532 22.224 94.18 22.224C93.396 22.224 92.764 22.512 92.284 23.088C91.804 23.664 91.428 24.56 91.156 25.776V33H88.948V20.352H90.844L91.06 22.92C91.396 21.976 91.852 21.264 92.428 20.784C93.004 20.304 93.676 20.064 94.444 20.064ZM106.957 16.464V33H104.677V16.464H106.957ZM124.331 20.064C125.371 20.064 126.203 20.416 126.827 21.12C127.451 21.808 127.763 22.744 127.763 23.928V33H125.555V24.24C125.555 22.608 124.963 21.792 123.779 21.792C123.155 21.792 122.627 21.976 122.195 22.344C121.763 22.696 121.299 23.256 120.803 24.024V33H118.595V24.24C118.595 22.608 118.003 21.792 116.819 21.792C116.179 21.792 115.643 21.976 115.211 22.344C114.779 22.712 114.323 23.272 113.843 24.024V33H111.635V20.352H113.531L113.723 22.2C114.667 20.776 115.883 20.064 117.371 20.064C118.155 20.064 118.819 20.264 119.363 20.664C119.923 21.064 120.323 21.624 120.563 22.344C121.059 21.608 121.603 21.048 122.195 20.664C122.803 20.264 123.515 20.064 124.331 20.064ZM140.734 30.048C140.734 30.56 140.822 30.944 140.998 31.2C141.174 31.44 141.438 31.624 141.79 31.752L141.286 33.288C140.63 33.208 140.102 33.024 139.702 32.736C139.302 32.448 139.006 32 138.814 31.392C137.966 32.656 136.71 33.288 135.046 33.288C133.798 33.288 132.814 32.936 132.094 32.232C131.374 31.528 131.014 30.608 131.014 29.472C131.014 28.128 131.494 27.096 132.454 26.376C133.43 25.656 134.806 25.296 136.582 25.296H138.526V24.36C138.526 23.464 138.31 22.824 137.878 22.44C137.446 22.056 136.782 21.864 135.886 21.864C134.958 21.864 133.822 22.088 132.478 22.536L131.926 20.928C133.494 20.352 134.95 20.064 136.294 20.064C137.782 20.064 138.894 20.432 139.63 21.168C140.366 21.888 140.734 22.92 140.734 24.264V30.048ZM135.55 31.632C136.814 31.632 137.806 30.976 138.526 29.664V26.76H136.87C134.534 26.76 133.366 27.624 133.366 29.352C133.366 30.104 133.55 30.672 133.918 31.056C134.286 31.44 134.83 31.632 135.55 31.632ZM155.234 20.928C154.754 21.088 154.226 21.192 153.65 21.24C153.074 21.288 152.37 21.312 151.538 21.312C153.026 21.984 153.77 23.048 153.77 24.504C153.77 25.768 153.338 26.8 152.474 27.6C151.61 28.4 150.434 28.8 148.946 28.8C148.37 28.8 147.834 28.72 147.338 28.56C147.146 28.688 146.994 28.864 146.882 29.088C146.77 29.296 146.714 29.512 146.714 29.736C146.714 30.424 147.266 30.768 148.37 30.768H150.386C151.234 30.768 151.986 30.92 152.642 31.224C153.298 31.528 153.802 31.944 154.154 32.472C154.522 33 154.706 33.6 154.706 34.272C154.706 35.504 154.202 36.448 153.194 37.104C152.186 37.776 150.714 38.112 148.778 38.112C147.418 38.112 146.338 37.968 145.538 37.68C144.754 37.408 144.194 36.992 143.858 36.432C143.522 35.872 143.354 35.152 143.354 34.272H145.346C145.346 34.784 145.442 35.184 145.634 35.472C145.826 35.776 146.17 36 146.666 36.144C147.162 36.304 147.866 36.384 148.778 36.384C150.106 36.384 151.05 36.216 151.61 35.88C152.186 35.56 152.474 35.072 152.474 34.416C152.474 33.824 152.25 33.376 151.802 33.072C151.354 32.768 150.73 32.616 149.93 32.616H147.938C146.866 32.616 146.05 32.392 145.49 31.944C144.946 31.48 144.674 30.904 144.674 30.216C144.674 29.8 144.794 29.4 145.034 29.016C145.274 28.632 145.618 28.288 146.066 27.984C145.33 27.6 144.786 27.128 144.434 26.568C144.098 25.992 143.93 25.296 143.93 24.48C143.93 23.632 144.138 22.872 144.554 22.2C144.986 21.528 145.57 21.008 146.306 20.64C147.058 20.256 147.89 20.064 148.802 20.064C149.794 20.08 150.626 20.048 151.298 19.968C151.97 19.872 152.522 19.752 152.954 19.608C153.402 19.448 153.946 19.224 154.586 18.936L155.234 20.928ZM148.802 21.648C147.97 21.648 147.322 21.912 146.858 22.44C146.41 22.952 146.186 23.632 146.186 24.48C146.186 25.344 146.418 26.04 146.882 26.568C147.346 27.08 148.002 27.336 148.85 27.336C149.714 27.336 150.37 27.088 150.818 26.592C151.282 26.08 151.514 25.368 151.514 24.456C151.514 22.584 150.61 21.648 148.802 21.648ZM166.68 26.304C166.68 26.672 166.664 27.048 166.632 27.432H158.568C158.664 28.824 159.016 29.848 159.624 30.504C160.232 31.16 161.016 31.488 161.976 31.488C162.584 31.488 163.144 31.4 163.656 31.224C164.168 31.048 164.704 30.768 165.264 30.384L166.224 31.704C164.88 32.76 163.408 33.288 161.808 33.288C160.048 33.288 158.672 32.712 157.68 31.56C156.704 30.408 156.216 28.824 156.216 26.808C156.216 25.496 156.424 24.336 156.84 23.328C157.272 22.304 157.88 21.504 158.664 20.928C159.464 20.352 160.4 20.064 161.472 20.064C163.152 20.064 164.44 20.616 165.336 21.72C166.232 22.824 166.68 24.352 166.68 26.304ZM164.496 25.656C164.496 24.408 164.248 23.456 163.752 22.8C163.256 22.144 162.512 21.816 161.52 21.816C159.712 21.816 158.728 23.144 158.568 25.8H164.496V25.656ZM176.158 20.064C177.31 20.064 178.206 20.408 178.846 21.096C179.502 21.784 179.83 22.728 179.83 23.928V33H177.622V24.24C177.622 23.344 177.454 22.712 177.118 22.344C176.782 21.976 176.286 21.792 175.63 21.792C174.958 21.792 174.366 21.984 173.854 22.368C173.342 22.752 172.862 23.304 172.414 24.024V33H170.206V20.352H172.102L172.294 22.224C172.742 21.552 173.294 21.024 173.95 20.64C174.622 20.256 175.358 20.064 176.158 20.064ZM200.412 15.264V33H198.468L198.252 31.248C197.836 31.888 197.316 32.392 196.692 32.76C196.068 33.112 195.372 33.288 194.604 33.288C193.1 33.288 191.924 32.696 191.076 31.512C190.244 30.328 189.828 28.736 189.828 26.736C189.828 25.44 190.028 24.288 190.428 23.28C190.828 22.272 191.404 21.488 192.156 20.928C192.908 20.352 193.788 20.064 194.796 20.064C196.092 20.064 197.228 20.584 198.204 21.624V15L200.412 15.264ZM195.084 31.536C195.756 31.536 196.332 31.384 196.812 31.08C197.292 30.76 197.756 30.288 198.204 29.664V23.472C197.788 22.928 197.34 22.52 196.86 22.248C196.396 21.96 195.868 21.816 195.276 21.816C194.3 21.816 193.54 22.224 192.996 23.04C192.468 23.856 192.204 25.072 192.204 26.688C192.204 28.32 192.452 29.536 192.948 30.336C193.444 31.136 194.156 31.536 195.084 31.536ZM214.516 26.304C214.516 26.672 214.5 27.048 214.468 27.432H206.404C206.5 28.824 206.852 29.848 207.46 30.504C208.068 31.16 208.852 31.488 209.812 31.488C210.42 31.488 210.98 31.4 211.492 31.224C212.004 31.048 212.54 30.768 213.1 30.384L214.06 31.704C212.716 32.76 211.244 33.288 209.644 33.288C207.884 33.288 206.508 32.712 205.516 31.56C204.54 30.408 204.052 28.824 204.052 26.808C204.052 25.496 204.26 24.336 204.676 23.328C205.108 22.304 205.716 21.504 206.5 20.928C207.3 20.352 208.236 20.064 209.308 20.064C210.988 20.064 212.276 20.616 213.172 21.72C214.068 22.824 214.516 24.352 214.516 26.304ZM212.332 25.656C212.332 24.408 212.084 23.456 211.588 22.8C211.092 22.144 210.348 21.816 209.356 21.816C207.548 21.816 206.564 23.144 206.404 25.8H212.332V25.656ZM228.857 16.464C230.905 16.464 232.489 16.896 233.609 17.76C234.729 18.608 235.289 19.88 235.289 21.576C235.289 23.384 234.705 24.728 233.537 25.608C232.369 26.488 230.817 26.928 228.881 26.928H226.793V33H224.513V16.464H228.857ZM228.785 25.128C230.113 25.128 231.121 24.872 231.809 24.36C232.513 23.848 232.865 22.928 232.865 21.6C232.865 20.416 232.513 19.56 231.809 19.032C231.121 18.504 230.129 18.24 228.833 18.24H226.793V25.128H228.785ZM242.364 20.064C244.14 20.064 245.516 20.656 246.492 21.84C247.484 23.024 247.98 24.632 247.98 26.664C247.98 27.976 247.756 29.136 247.308 30.144C246.86 31.136 246.212 31.912 245.364 32.472C244.516 33.016 243.508 33.288 242.34 33.288C240.564 33.288 239.18 32.696 238.188 31.512C237.196 30.328 236.7 28.72 236.7 26.688C236.7 25.376 236.924 24.224 237.372 23.232C237.82 22.224 238.468 21.448 239.316 20.904C240.164 20.344 241.18 20.064 242.364 20.064ZM242.364 21.84C240.172 21.84 239.076 23.456 239.076 26.688C239.076 29.904 240.164 31.512 242.34 31.512C244.516 31.512 245.604 29.896 245.604 26.664C245.604 23.448 244.524 21.84 242.364 21.84ZM257.124 20.064C257.572 20.064 257.988 20.112 258.372 20.208L257.964 22.368C257.58 22.272 257.212 22.224 256.86 22.224C256.076 22.224 255.444 22.512 254.964 23.088C254.484 23.664 254.108 24.56 253.836 25.776V33H251.628V20.352H253.524L253.74 22.92C254.076 21.976 254.532 21.264 255.108 20.784C255.684 20.304 256.356 20.064 257.124 20.064ZM267.269 32.424C266.437 33 265.493 33.288 264.437 33.288C263.365 33.288 262.525 32.984 261.917 32.376C261.325 31.752 261.029 30.856 261.029 29.688V22.056H258.821V20.352H261.029V17.496L263.237 17.232V20.352H266.237L265.997 22.056H263.237V29.592C263.237 30.248 263.349 30.728 263.573 31.032C263.813 31.32 264.205 31.464 264.749 31.464C265.245 31.464 265.805 31.296 266.429 30.96L267.269 32.424ZM277.913 30.048C277.913 30.56 278.001 30.944 278.177 31.2C278.353 31.44 278.617 31.624 278.969 31.752L278.465 33.288C277.809 33.208 277.281 33.024 276.881 32.736C276.481 32.448 276.185 32 275.993 31.392C275.145 32.656 273.889 33.288 272.225 33.288C270.977 33.288 269.993 32.936 269.273 32.232C268.553 31.528 268.193 30.608 268.193 29.472C268.193 28.128 268.673 27.096 269.633 26.376C270.609 25.656 271.985 25.296 273.761 25.296H275.705V24.36C275.705 23.464 275.489 22.824 275.057 22.44C274.625 22.056 273.961 21.864 273.065 21.864C272.137 21.864 271.001 22.088 269.657 22.536L269.105 20.928C270.673 20.352 272.129 20.064 273.473 20.064C274.961 20.064 276.073 20.432 276.809 21.168C277.545 21.888 277.913 22.92 277.913 24.264V30.048ZM272.729 31.632C273.993 31.632 274.985 30.976 275.705 29.664V26.76H274.049C271.713 26.76 270.545 27.624 270.545 29.352C270.545 30.104 270.729 30.672 271.097 31.056C271.465 31.44 272.009 31.632 272.729 31.632ZM292.24 15.264V33H290.296L290.08 31.248C289.664 31.888 289.144 32.392 288.52 32.76C287.896 33.112 287.2 33.288 286.432 33.288C284.928 33.288 283.752 32.696 282.904 31.512C282.072 30.328 281.656 28.736 281.656 26.736C281.656 25.44 281.856 24.288 282.256 23.28C282.656 22.272 283.232 21.488 283.984 20.928C284.736 20.352 285.616 20.064 286.624 20.064C287.92 20.064 289.056 20.584 290.032 21.624V15L292.24 15.264ZM286.912 31.536C287.584 31.536 288.16 31.384 288.64 31.08C289.12 30.76 289.584 30.288 290.032 29.664V23.472C289.616 22.928 289.168 22.52 288.688 22.248C288.224 21.96 287.696 21.816 287.104 21.816C286.128 21.816 285.368 22.224 284.824 23.04C284.296 23.856 284.032 25.072 284.032 26.688C284.032 28.32 284.28 29.536 284.776 30.336C285.272 31.136 285.984 31.536 286.912 31.536ZM305.312 30.048C305.312 30.56 305.4 30.944 305.576 31.2C305.752 31.44 306.016 31.624 306.368 31.752L305.864 33.288C305.208 33.208 304.68 33.024 304.28 32.736C303.88 32.448 303.584 32 303.392 31.392C302.544 32.656 301.288 33.288 299.624 33.288C298.376 33.288 297.392 32.936 296.672 32.232C295.952 31.528 295.592 30.608 295.592 29.472C295.592 28.128 296.072 27.096 297.032 26.376C298.008 25.656 299.384 25.296 301.16 25.296H303.104V24.36C303.104 23.464 302.888 22.824 302.456 22.44C302.024 22.056 301.36 21.864 300.464 21.864C299.536 21.864 298.4 22.088 297.056 22.536L296.504 20.928C298.072 20.352 299.528 20.064 300.872 20.064C302.36 20.064 303.472 20.432 304.208 21.168C304.944 21.888 305.312 22.92 305.312 24.264V30.048ZM300.128 31.632C301.392 31.632 302.384 30.976 303.104 29.664V26.76H301.448C299.112 26.76 297.944 27.624 297.944 29.352C297.944 30.104 298.128 30.672 298.496 31.056C298.864 31.44 299.408 31.632 300.128 31.632Z" fill="white"/>
</svg>
